<svg xmlns="http://www.w3.org/2000/svg" xmlns:xlink="http://www.w3.org/1999/xlink" width="149" height="51.569" viewBox="0 0 149 51.569"><defs><style>.a,.b,.c{fill:#fff;stroke:#000;}.a,.b{stroke-width:0.5px;font-size:20px;letter-spacing:0.3em;}.a{font-family:Raleway-Regular, Raleway;}.b{font-family:Raleway-Light, Raleway;font-weight:300;}.c{stroke-width:0.3px;}.d{filter:url(#a);}</style><filter id="a" x="0" y="17.569" width="149" height="34" filterUnits="userSpaceOnUse"><feOffset input="SourceAlpha"/><feGaussianBlur stdDeviation="1.5" result="b"/><feFlood flood-opacity="0.471"/><feComposite operator="in" in2="b"/><feComposite in="SourceGraphic"/></filter></defs><g transform="translate(5 0.68)"><g class="d" transform="matrix(1, 0, 0, 1, -5, -0.68)"><text class="a" transform="translate(5 41.57)"><tspan x="0" y="0">AIRPLANE</tspan></text></g><g transform="translate(-999 -544.111)"><text class="b" transform="matrix(0.875, 0.485, -0.485, 0.875, 1059.484, 560.729)"><tspan x="0" y="0">A</tspan></text><path class="c" d="M1071.525,551.606l-7.884-4.341.5-.766,16.714,9.135-.481.79s-6.908-3.848-8.849-4.818"/><path class="c" d="M1073.717,552.49l-10.076-5.091.639-.9,21.361,10.715-.614.926s-8.829-4.513-11.31-5.652" transform="matrix(0.999, 0.052, -0.052, 0.999, 23.123, -48.486)"/></g></g></svg>